# xmcd CD database file
#
# Track frame offsets:
#	187
#	11708
#	33410
#	49328
#	70898
#	90073
#	106393
#	124398
#	141558
#	157800
#	169065
#	184033
#	194163
#	204530
#	214917
#	225547
#	236733
#	249485
#	260345
#	271928
#	282715
#	295190
#	307040
#
# Disc length: 4238 seconds
#
# Revision: 5
# Processed by: cddbd v1.5.2PL0 Copyright (c) Steve Scherf et al.
# Submitted via: CDex 1.51
#
DISCID=60108c17
DTITLE=B.B.King - Great Moments With B.B. King
DYEAR=1981
DGENRE=Blues
TTITLE0=Waitin' On You
TTITLE1=Gambler's Blues
TTITLE2=Tired Of Your Jive
TTITLE3=Night Life
TTITLE4=Buzz Me
TTITLE5=Blind Love
TTITLE6=Baby Get Lost
TTITLE7=Gonna Keep On Loving You
TTITLE8=I Know What You're Puttin' Down
TTITLE9=Heartbreaker
TTITLE10=Dance With Me
TTITLE11=That's Wrong Little Mama
TTITLE12=See See Rider
TTITLE13=Wee Baby Blues
TTITLE14=I'd Rather Drink Muddy Water
TTITLE15=I'm Gonna Move To The Outskirts Of Town
TTITLE16=How Long, How Long Blues
TTITLE17=Cherry Red
TTITLE18=Paying The Cost To Be The Boss
TTITLE19=Until I Found You
TTITLE20=I'm Gonna Do What They Do To Me
TTITLE21=Having My Say
TTITLE22=I'm Not Wanted Anymore
EXTD=YEAR: 1981
EXTT0=
EXTT1=
EXTT2=
EXTT3=
EXTT4=
EXTT5=
EXTT6=
EXTT7=
EXTT8=
EXTT9=
EXTT10=
EXTT11=
EXTT12=
EXTT13=
EXTT14=
EXTT15=
EXTT16=
EXTT17=
EXTT18=
EXTT19=
EXTT20=
EXTT21=
EXTT22=
PLAYORDER=
